<?xml version="1.0" encoding="utf-8"?>
<!-- Generator: Adobe Illustrator 25.4.1, SVG Export Plug-In . SVG Version: 6.00 Build 0)  -->
<svg version="1.0" id="katman_1" xmlns="http://www.w3.org/2000/svg" xmlns:xlink="http://www.w3.org/1999/xlink" x="0px" y="0px"
	 viewBox="0 0 1280 1024" style="enable-background:new 0 0 1280 1024;" xml:space="preserve">
<style type="text/css">
	.st0{fill:url(#SVGID_1_);}
	.st1{fill:url(#SVGID_00000096047596574183798620000012494655971367525774_);}
	.st2{fill:url(#SVGID_00000124861100681814988520000016647588624534216090_);}
	.st3{fill:#1D1D1B;}
	.st4{fill:#BABCBE;}
	.st5{fill:#F89838;}
</style>
<linearGradient id="SVGID_1_" gradientUnits="userSpaceOnUse" x1="-136.6387" y1="719.7885" x2="227.935" y2="719.7885" gradientTransform="matrix(1 0 0 -1 244 1232)">
	<stop  offset="0" style="stop-color:#FBD900"/>
	<stop  offset="3.420000e-02" style="stop-color:#FACE03"/>
	<stop  offset="0.1662" style="stop-color:#F6AA0D"/>
	<stop  offset="0.3049" style="stop-color:#F28B16"/>
	<stop  offset="0.4501" style="stop-color:#EF741D"/>
	<stop  offset="0.6046" style="stop-color:#ED6321"/>
	<stop  offset="0.7748" style="stop-color:#EC5924"/>
	<stop  offset="0.991" style="stop-color:#EC5625"/>
	<stop  offset="1" style="stop-color:#EC5625"/>
</linearGradient>
<path class="st0" d="M463.5,638.2c-7.5-8.5-16.2-15.9-25.9-21.9c-16.6-11.3-34.5-20.6-53.3-27.6l-86-237.5
	c-1.6-4.8-3.9-9.3-6.9-13.4c-2.9-4.5-7-8.2-11.7-10.7c-4.7-2.6-10-3.9-15.4-3.9c-5.4,0-10.7,1.3-15.4,3.9
	c-4.7,2.6-8.7,6.3-11.7,10.7c-3,4.1-5.3,8.6-6.9,13.4L107.9,689c-0.8,2.1-0.7,4.3,0,6.4c0.8,2.1,2.3,3.8,4.2,4.8
	c1.9,1,4.2,1.3,6.3,0.9c2.1-0.5,4-1.7,5.3-3.5c0.3-0.4,0.6-0.7,0.8-1.1c23-38.9,57.9-69.4,99.5-86.9c41.6-17.6,87.8-21.3,131.7-10.7
	l0,0c4.9,1.3,9.7,2.8,14.3,4.3l15.7,43.4l0,0.1c0.1,0.2,6.3,17,10.9,28.4c5.3,13.5,15.1,22.4,27.5,25.2c2.6,0.6,5.2,0.9,7.9,0.9
	c10.3-0.1,20.2-4.1,27.8-11.2c3.8-3.4,6.8-7.6,8.9-12.2c2.1-4.6,3.2-9.7,3.2-14.8C472,654,469,645.2,463.5,638.2z M191,605.6
	c-16.8,9.8-32.3,21.7-46.2,35.5l103.1-284.3c1.1-3,2.6-5.9,4.5-8.5c1.3-2.1,3-3.8,5.1-5c2.1-1.2,4.5-1.8,6.9-1.8s4.8,0.6,6.9,1.8
	c2.1,1.2,3.9,2.9,5.1,5c1.9,2.6,3.4,5.5,4.5,8.5l81.4,224.8C304.3,566.9,242.8,575.5,191,605.6z M447.3,676.6
	c-2.5,2.4-5.5,4.2-8.9,5.2c-3.3,1-6.9,1.2-10.3,0.6c-6.4-1.4-11.4-6.3-14.5-14.1c-4.4-11-10.4-27.1-10.7-28.1l-10.2-28.3
	c12.1,5.6,23.7,12.2,34.8,19.6c8,4.9,15.4,11,21.7,18c3.2,3.9,4.8,8.9,4.4,13.9C453.3,668.4,451,673.1,447.3,676.6z"/>
<linearGradient id="SVGID_00000111191635627299608780000014051459279452657546_" gradientUnits="userSpaceOnUse" x1="-119.2737" y1="596.6155" x2="126.1382" y2="596.6155" gradientTransform="matrix(1 0 0 -1 244 1232)">
	<stop  offset="0.2768" style="stop-color:#FFFFFF;stop-opacity:0"/>
	<stop  offset="0.7917" style="stop-color:#080506;stop-opacity:0.12"/>
	<stop  offset="0.905" style="stop-color:#080506;stop-opacity:0.23"/>
</linearGradient>
<path style="fill:url(#SVGID_00000111191635627299608780000014051459279452657546_);" d="M306,574.6
	c-60.4-0.1-118.4,23.8-161.2,66.5l-2.7,7.4l-17.4,47.7c23-38.8,57.9-69.3,99.5-86.8c41.6-17.5,87.7-21.3,131.6-10.6l0,0
	c4.9,1.3,9.7,2.8,14.3,4.3l-7.8-21.5C344,576.9,325,574.6,306,574.6z"/>
<linearGradient id="SVGID_00000008151320141765615600000013464734105635448206_" gradientUnits="userSpaceOnUse" x1="140.3557" y1="606.3069" x2="227.9378" y2="606.3069" gradientTransform="matrix(1 0 0 -1 244 1232)">
	<stop  offset="0.1078" style="stop-color:#080506;stop-opacity:0.23"/>
	<stop  offset="0.2389" style="stop-color:#080506;stop-opacity:0.2"/>
	<stop  offset="0.8771" style="stop-color:#FFFFFF;stop-opacity:0"/>
</linearGradient>
<path style="fill:url(#SVGID_00000008151320141765615600000013464734105635448206_);" d="M463.5,638.2c-7.5-8.5-16.2-15.9-25.9-21.9
	c-16.6-11.3-34.5-20.6-53.3-27.6l8.4,23.2h0c12.1,5.6,23.7,12.2,34.8,19.6c8,4.9,15.4,11,21.7,18c2.9,3.8,4.5,8.4,4.5,13.2h18.3
	C471.9,653.8,469,645.2,463.5,638.2z"/>
<path class="st3" d="M475.5,467.6h-9.7l-9.4-21.2h-43.6l-9.5,21.2h-9.3l36.5-80.7h8.5L475.5,467.6z M434.7,397.5l-18.3,40.9h36.5
	L434.7,397.5z"/>
<path class="st3" d="M546.1,433.4c0.1,5.3-0.7,10.5-2.4,15.5c-1.4,4.2-3.8,7.9-6.8,11.1c-3,3-6.6,5.3-10.5,6.7
	c-4.4,1.5-9,2.3-13.7,2.2c-4.6,0.1-9.2-0.7-13.6-2.2c-4-1.4-7.6-3.7-10.5-6.6c-3-3.1-5.4-6.8-6.8-10.9c-1.7-4.8-2.5-9.9-2.4-15
	v-46.6h9v46c-0.5,7.3,1.8,14.4,6.5,20c4.9,4.4,11.2,6.9,17.8,7c6.6,0.1,12.9-2.3,17.9-6.6c4.3-4.4,6.5-11,6.5-19.8v-46.6h9V433.4z"
	/>
<path class="st3" d="M590.8,467.6h-9v-71.8h-26.9v-8.4h62.8v8.4h-26.9L590.8,467.6z"/>
<path class="st3" d="M698,443.3c-1.9,4.9-4.8,9.4-8.4,13.2c-3.7,3.9-8.1,7-12.9,9.1c-5.3,2.2-10.9,3.4-16.7,3.4
	c-5.7,0-11.4-1.1-16.7-3.3c-4.8-2.1-9.2-5.1-12.8-8.9c-3.6-3.8-6.5-8.3-8.3-13.2c-2-5.1-2.9-10.4-2.9-15.9c0-5.4,1-10.8,3-15.9
	c1.9-4.9,4.8-9.4,8.4-13.2c3.7-3.9,8.1-7,12.9-9.1c5.3-2.2,10.9-3.4,16.7-3.4c5.7,0,11.4,1.1,16.7,3.3c4.8,2.1,9.2,5.1,12.8,8.9
	c3.6,3.8,6.5,8.3,8.3,13.2c2,5.1,2.9,10.4,2.9,15.9C701,432.9,700,438.2,698,443.3z M689.2,414.7c-1.5-3.9-3.7-7.5-6.5-10.5
	c-2.8-3-6.3-5.5-10.1-7.2c-4-1.8-8.3-2.7-12.6-2.6c-4.3,0-8.7,0.8-12.6,2.6c-3.7,1.6-7.1,4-9.9,7c-2.8,3.1-5,6.6-6.5,10.5
	c-1.6,4.1-2.4,8.5-2.3,12.9c0,4.4,0.8,8.8,2.3,12.9c1.5,3.9,3.7,7.5,6.5,10.5c2.8,3,6.3,5.5,10.1,7.2c4,1.8,8.3,2.7,12.6,2.6
	c4.3,0,8.7-0.8,12.6-2.6c3.7-1.6,7.1-4,9.9-7c2.8-3.1,5-6.6,6.5-10.5c1.6-4.1,2.4-8.5,2.3-12.9C691.6,423.2,690.8,418.9,689.2,414.7
	z"/>
<path class="st3" d="M752.3,445.6h-0.5l-29.2-42.8v64.8h-8.8v-80.2h9.2l29.2,43.8l29.2-43.8h9.2v80.2h-9v-64.9L752.3,445.6z"/>
<path class="st3" d="M880.9,467.6h-9.7l-9.4-21.2h-43.6l-9.5,21.2h-9.3l36.5-80.7h8.5L880.9,467.6z M840,397.5l-18.3,40.9h36.5
	L840,397.5z"/>
<path class="st3" d="M909,467.6h-9v-71.8h-26.9v-8.4h62.8v8.4H909V467.6z"/>
<path class="st3" d="M954.9,387.5v80.2h-9v-80.2H954.9z"/>
<path class="st3" d="M1047.2,443.3c-1.9,4.9-4.8,9.4-8.4,13.2c-3.7,3.9-8.1,7-12.9,9.1c-5.3,2.2-10.9,3.4-16.7,3.4
	c-5.7,0-11.4-1.1-16.7-3.3c-4.8-2.1-9.2-5.1-12.8-8.9c-3.6-3.8-6.5-8.3-8.3-13.2c-2-5.1-2.9-10.4-2.9-15.9c0-5.4,1-10.8,3-15.9
	c1.9-4.9,4.8-9.4,8.3-13.2c3.7-3.9,8.1-7,12.9-9.1c5.3-2.2,10.9-3.4,16.7-3.4c5.7,0,11.4,1.1,16.7,3.3c4.8,2.1,9.2,5.1,12.8,8.9
	c3.6,3.8,6.5,8.3,8.3,13.2c2,5.1,2.9,10.4,2.9,15.9C1050.2,432.9,1049.2,438.2,1047.2,443.3z M1038.5,414.7
	c-1.5-3.9-3.7-7.5-6.5-10.5c-2.8-3-6.3-5.5-10.1-7.2c-4-1.8-8.3-2.7-12.6-2.6c-4.3,0-8.7,0.8-12.6,2.6c-3.7,1.6-7.1,4-9.9,7
	c-2.8,3.1-5,6.6-6.5,10.5c-1.6,4.1-2.4,8.5-2.3,12.9c0,4.4,0.8,8.8,2.3,12.9c1.5,3.9,3.7,7.5,6.5,10.5c2.8,3,6.3,5.5,10.1,7.2
	c4,1.8,8.3,2.7,12.6,2.6c4.3,0,8.7-0.8,12.6-2.6c3.7-1.6,7.1-4,9.9-7c2.8-3.1,5-6.6,6.5-10.5c1.6-4.1,2.4-8.5,2.3-12.9
	C1040.9,423.2,1040.1,418.9,1038.5,414.7z"/>
<path class="st3" d="M1122,387.5h8.8v80.2h-7.2l-51.7-65.7v65.7h-8.8v-80.2h8.5l50.5,64.3V387.5z"/>
<path class="st3" d="M501,508.2h16.2l34.3,80.7h-18.4l-7.3-18H492l-7.3,18h-18L501,508.2z M519.6,555.3l-10.6-26l-10.6,26H519.6z"/>
<path class="st3" d="M557.2,508.7h16.2l37.5,49.4v-49.4h17.4v80.2h-15l-38.8-51v51h-17.4V508.7z"/>
<path class="st3" d="M664.1,557.3l-30.8-48.6h20.6l19.1,32.2l19.5-32.2h20l-30.8,48.2v32h-17.6L664.1,557.3z"/>
<path class="st3" d="M714.5,508.7h18.9l16.6,54.3l18-54.5H783l18,54.5l16.6-54.3H836l-27.3,80.7h-15.3L775.2,537l-18.1,52.5h-15.3
	L714.5,508.7z"/>
<path class="st3" d="M841.9,508.7h17.6v31.7H892v-31.7h17.6v80.2H892v-32.2h-32.5v32.2h-17.6V508.7z"/>
<path class="st3" d="M923.5,508.7h60.3v15.7h-42.9v16.3h37.8v15.7h-37.8v16.8h43.5v15.7h-60.9V508.7z"/>
<path class="st3" d="M995.3,508.7h36.6c10.1,0,17.9,2.7,23.3,8.1c2.3,2.4,4.1,5.3,5.3,8.5c1.2,3.2,1.7,6.5,1.5,9.9v0.2
	c0.2,5.7-1.4,11.3-4.8,15.9c-3.2,4.1-7.5,7.2-12.4,9l19.6,28.6h-20.6l-17.2-25.7h-13.8v25.7h-17.6V508.7z M1030.8,547.7
	c3.6,0.2,7.2-0.9,10-3.1c1.2-1,2.1-2.3,2.7-3.7c0.6-1.4,0.9-3,0.8-4.5v-0.2c0.1-1.6-0.2-3.2-0.8-4.7c-0.6-1.5-1.6-2.8-2.9-3.9
	c-3-2.1-6.6-3.1-10.2-2.9h-17.5v23L1030.8,547.7z"/>
<path class="st3" d="M1072.5,508.7h60.3v15.7h-42.9v16.3h37.8v15.7h-37.8v16.8h43.5v15.7h-60.9V508.7z"/>
<path class="st4" d="M1148.4,382.7h-5.2v-1.9h12.5v1.9h-5.2V396h-2.1V382.7z"/>
<path class="st4" d="M1158.7,380.8h2.2l3.5,8.2c0.3,0.8,0.8,2,0.8,2h0c0,0,0.4-1.2,0.8-2l3.5-8.2h2.2l1.2,15.2h-2.1l-0.8-9.6
	c-0.1-0.9,0-2.2,0-2.2h0c0,0-0.5,1.4-0.8,2.2l-3,6.8h-1.9l-3-6.8c-0.3-0.8-0.8-2.3-0.8-2.3h0c0,0,0,1.4,0,2.3l-0.7,9.6h-2.1
	L1158.7,380.8z"/>
<path class="st5" d="M766.6,621.4c5.5-0.2,10.9,1.6,15.1,5.2l-3.7,5.5c-3.1-2.5-6.9-3.8-10.8-3.9c-1.9-0.1-3.7,0.2-5.5,0.8
	c-1.7,0.7-3.3,1.7-4.7,3c-1.3,1.3-2.3,2.9-3,4.7c-0.7,1.7-0.9,3.6-0.8,5.5c-0.1,1.9,0.1,3.7,0.7,5.5c0.6,1.8,1.6,3.4,2.9,4.7
	c1.3,1.4,2.8,2.5,4.5,3.2c1.7,0.7,3.6,1.1,5.4,1.1c3.8-0.1,7.4-1.6,10.2-4.2v-4.8h-6.2v-6.4h12.9v21.4h-6.3v-1.9
	c0-0.9,0.1-1.7,0.1-1.7h-0.1c-3.2,2.9-7.4,4.4-11.8,4.4c-2.7,0-5.4-0.6-7.9-1.6c-2.5-1.1-4.7-2.6-6.6-4.6c-1.9-2-3.3-4.3-4.2-6.8
	c-0.9-2.5-1.3-5.3-1.2-8c-0.1-2.8,0.4-5.5,1.5-8.1c1-2.6,2.6-4.9,4.5-6.9c2-2,4.3-3.5,6.9-4.5C761.1,621.9,763.9,621.4,766.6,621.4z
	"/>
<path class="st5" d="M804.6,632.9c3,0.1,5.9,1.2,8.3,2.9c2.4,1.8,4.3,4.2,5.3,7c1,2.8,1.2,5.9,0.6,8.8c-0.7,2.9-2.2,5.6-4.4,7.6
	c-2.2,2.1-4.9,3.5-7.8,4c-2.9,0.5-6,0.2-8.7-1c-2.8-1.2-5.1-3.1-6.7-5.6c-1.6-2.5-2.5-5.4-2.5-8.4c0-2.1,0.4-4.1,1.3-6
	c0.8-1.9,2-3.6,3.5-5c1.5-1.4,3.3-2.5,5.2-3.3C800.5,633.1,802.6,632.8,804.6,632.9z M804.7,657.3c1.8,0.1,3.6-0.4,5.2-1.3
	c1.5-1,2.8-2.3,3.5-4c0.7-1.7,1-3.5,0.7-5.3s-1.1-3.5-2.4-4.8c-1.3-1.3-2.9-2.2-4.7-2.6c-1.8-0.4-3.6-0.2-5.3,0.4
	c-1.7,0.7-3.1,1.8-4.2,3.4s-1.6,3.3-1.6,5.1c-0.1,1.2,0.1,2.4,0.5,3.5c0.4,1.1,1,2.1,1.9,3c0.8,0.9,1.8,1.5,2.9,2
	C802.3,657,803.5,657.3,804.7,657.3z"/>
<path class="st5" d="M840.4,622.1h7.3v12.5c0,0.8,0,1.6-0.1,2.5h0.1c1-1.4,2.3-2.5,3.8-3.2c1.5-0.7,3.2-1.1,4.9-1
	c7.9,0,12.9,6.2,12.9,15.3c0,9.3-5.7,15.3-13.4,15.3c-1.7,0-3.4-0.3-4.9-1.1c-1.5-0.8-2.8-1.9-3.8-3.3h-0.1c0.1,0.7,0.1,1.3,0.1,2
	v1.7h-6.9V622.1z M854.7,657.3c4,0,7.3-3.3,7.3-9c0-5.6-3-9.2-7.3-9.2c-3.8,0-7.3,2.8-7.3,9.2C847.5,652.9,849.9,657.3,854.7,657.3z
	"/>
<path class="st5" d="M888.2,632.9c8.4,0,12.9,6.1,12.9,13.9c0,0.9-0.2,2.8-0.2,2.8h-20.1c0.1,2.2,1.2,4.2,2.8,5.7
	c1.6,1.4,3.8,2.2,6,2.1c3.1-0.1,6-1.3,8.4-3.2l2.8,5.2c-3.3,2.7-7.4,4.2-11.7,4.2c-2,0.1-4.1-0.2-6-1c-1.9-0.7-3.7-1.8-5.1-3.3
	c-1.5-1.4-2.6-3.2-3.4-5.1c-0.8-1.9-1.2-3.9-1.1-6c-0.1-2,0.2-4,0.9-5.9s1.8-3.6,3.2-5c1.4-1.4,3.1-2.6,4.9-3.3
	S886.1,632.8,888.2,632.9z M893.8,644.5c0.1-0.8,0-1.6-0.3-2.3c-0.3-0.7-0.7-1.4-1.2-2c-0.5-0.6-1.2-1-1.9-1.3
	c-0.7-0.3-1.5-0.4-2.3-0.4c-1.7-0.1-3.4,0.5-4.7,1.7c-1.3,1.1-2.1,2.7-2.3,4.4H893.8z"/>
<path class="st5" d="M932,668.6c4.5,0,8.2-1.9,8.2-7.1v-1.7c0-0.5,0-1,0.1-1.5h-0.1c-0.9,1.3-2.1,2.4-3.5,3.1s-3,1-4.6,0.9
	c-8.4,0-13.1-6.8-13.1-14.8c0-8,4.5-14.5,12.9-14.5c1.6-0.1,3.3,0.1,4.8,0.8s2.8,1.7,3.8,3h0.2c0-0.3-0.1-0.5-0.1-0.8v-2.2h6.8V661
	c0,10-7.8,13.8-15.4,13.8c-3.6,0-7.1-0.9-10.3-2.5l2.2-5.6C926.5,667.9,929.2,668.5,932,668.6z M940.4,647.5c0-6.6-3.3-8.4-7.2-8.4
	c-4.4,0-6.9,3.2-6.9,8.1c0,5.1,2.6,8.9,7.3,8.9C937.2,656.1,940.4,654.1,940.4,647.5z"/>
<path class="st5" d="M955.5,633.6h7v5c0,0.7,0,1.4-0.1,2.1h0.1c0.5-2.1,1.7-3.9,3.4-5.3c1.7-1.3,3.7-2.1,5.9-2.2
	c0.4,0,0.9,0,1.3,0.1v7.2c-0.6-0.1-1.1-0.1-1.7-0.1c-1.8,0-3.6,0.6-5,1.7c-1.4,1.1-2.5,2.7-2.9,4.4c-0.4,1.5-0.7,3.1-0.6,4.8v11.6
	h-7.3V633.6z"/>
<path class="st5" d="M990.8,632.9c8.4,0,12.9,6.1,12.9,13.9c0,0.9-0.2,2.8-0.2,2.8h-20.1c0.1,2.2,1.2,4.2,2.8,5.7
	c1.6,1.4,3.8,2.2,6,2.1c3.1-0.1,6-1.3,8.4-3.2l2.8,5.2c-3.3,2.7-7.5,4.2-11.7,4.2c-2.1,0.1-4.1-0.2-6-1c-1.9-0.7-3.7-1.8-5.1-3.3
	c-1.5-1.4-2.6-3.2-3.4-5.1c-0.8-1.9-1.2-3.9-1.1-6c-0.1-2,0.2-4,0.9-5.9c0.7-1.9,1.8-3.6,3.2-5c1.4-1.4,3.1-2.6,4.9-3.3
	C986.8,633.2,988.8,632.8,990.8,632.9z M996.4,644.5c0.1-0.8,0-1.6-0.3-2.3c-0.3-0.7-0.7-1.4-1.2-2c-0.5-0.6-1.2-1-1.9-1.3
	c-0.7-0.3-1.5-0.4-2.3-0.4c-1.7-0.1-3.4,0.5-4.7,1.7c-1.3,1.1-2.1,2.7-2.3,4.4H996.4z"/>
<path class="st5" d="M1024.5,644.4h1V644c0-3.8-2.4-5.2-5.6-5.2c-2.9,0.2-5.7,1.1-8,2.8l-2.7-5.2c3.3-2.4,7.4-3.6,11.4-3.6
	c7.7,0,12.1,4.2,12.1,11.6v18.3h-6.7v-2.4c0-0.7,0-1.4,0.1-2.1h-0.1c-0.8,1.6-2.1,3-3.7,3.9c-1.6,0.9-3.4,1.4-5.2,1.3
	c-1.3,0.1-2.5-0.1-3.7-0.5c-1.2-0.4-2.3-1.1-3.2-1.9c-0.9-0.9-1.7-1.9-2.2-3c-0.5-1.2-0.8-2.4-0.8-3.7
	C1007.3,645.1,1019.8,644.4,1024.5,644.4z M1019,657.8c1.9-0.2,3.6-1.1,4.8-2.6c1.2-1.4,1.9-3.2,1.8-5.1v-0.7h-1.3
	c-3.7,0-9.7,0.5-9.7,4.6c0,0.5,0.1,1.1,0.4,1.6c0.2,0.5,0.6,0.9,1,1.3c0.4,0.4,0.9,0.6,1.4,0.8
	C1017.9,657.8,1018.4,657.9,1019,657.8z"/>
<path class="st5" d="M1041.4,639.8h-3.8V634h3.9v-8.4h7.1v8.4h6.6v5.8h-6.6v11.3c0,0.8,0.1,1.5,0.3,2.2c0.3,0.7,0.7,1.3,1.3,1.9
	c0.6,0.5,1.2,0.9,1.9,1.2c0.7,0.2,1.5,0.3,2.2,0.2c0.4,0,0.9,0,1.3-0.1v6.4c-0.7,0.1-1.5,0.2-2.2,0.2c-4.1,0-12.1-1.2-12.1-11V639.8
	z"/>
<path class="st5" d="M1061.4,655.5h7.3v7.3h-7.3V655.5z"/>
</svg>
