<?xml version="1.0" encoding="utf-8"?>
<!-- Generator: Adobe Illustrator 26.0.3, SVG Export Plug-In . SVG Version: 6.00 Build 0)  -->
<svg version="1.0" id="katman_1" xmlns="http://www.w3.org/2000/svg" xmlns:xlink="http://www.w3.org/1999/xlink" x="0px" y="0px"
	 viewBox="0 0 600 450" style="enable-background:new 0 0 600 450;" xml:space="preserve">
<style type="text/css">
	.st0{fill:#1E73B9;}
	.st1{fill:#0C7ABF;}
	.st2{fill:#808285;}
	.st3{fill:#6D6E71;}
</style>
<path class="st0" d="M138.9,241.9c0,2.8,2.3,4.8,5.5,4.8c2.3,0,4.3-1.1,6.2-2.9l0,0l-7.4-7.4C140.2,237.8,138.9,239.8,138.9,241.9"
	/>
<path class="st0" d="M150.4,225.9c0-2.3-1.5-3.8-3.8-3.8c-2.3,0-3.9,1.6-3.9,4c0,1.7,0.7,2.9,2.5,4.9
	C148.6,229.9,150.4,228.4,150.4,225.9"/>
<path class="st0" d="M159.5,252.7l-5.5-5.5l-0.1,0.1c-2.8,2.6-6.1,4.3-10.1,4.3c-6.1,0-10.7-3.7-10.7-9.4c0-4.3,2.5-7.3,7-9.2
	c-1.9-2.4-2.7-4.5-2.7-6.9c0-4.5,3.6-8.3,9.4-8.3c5.2,0,8.7,3.5,8.7,8c0,4.5-2.9,7-7.2,8.6l2.2,2.2h9L159.5,252.7L159.5,252.7z
	 M204.7,244.8c-2.8,2.6-6.7,4.2-10.9,4.2c-8.8,0-15.4-6.2-15.4-15.9c0-9.7,6.1-16,15.4-16c3.5,0,7,1.2,9.6,3.2h12.7
	c-4.4-7.8-12.7-12.9-22.3-12.9c-12.2,0-22.4,8-25,19.8v-49h-42.5v64.9c-0.3-9.3-8.4-12.2-15.4-14.7c-6.3-2.1-11.8-3.6-11.8-7.3
	c0-3.4,3.1-5.3,7.6-5.3c3.4,0,6.5,1.5,8.3,4.4h10.6c-2.3-7.5-9.4-12.9-18.5-12.9c-10.4,0-18.1,6.6-18.1,14.2
	c0,8.6,7.2,11.6,13.1,13.7c7,2.5,14,4.1,14,8.8c0,3.2-3,5.7-8,5.7c-4.5,0-8-2.2-9.9-5.2h-9.4c0-0.3,0.1-0.7,0.1-1
	c0-9.7-8.3-12.6-15.4-15.2c-6.3-2.1-11.8-3.6-11.8-7.3c0-3.4,3.1-5.3,7.6-5.3c3.4,0,6.5,1.5,8.3,4.4h10.6
	c-2.3-7.5-9.4-12.9-18.5-12.9c-10.4,0-18.1,6.6-18.1,14.2c0,8.6,7.2,11.6,13.1,13.7c7,2.5,14,4.1,14,8.8c0,3.2-3,5.7-8,5.7
	c-4.5,0-8-2.2-9.9-5.2H50.1c2.8,8.5,9.9,14,19.9,14s16.8-4.7,18.5-11.7c3.3,7.2,9.9,11.7,19,11.7c11.2,0,18.7-6.2,18.9-14.9v24.5
	h42.5V239c2.5,11.8,12.7,19.8,25,19.8c10.2,0,18.8-5.5,23-14L204.7,244.8L204.7,244.8z"/>
<polygon class="st2" points="241.3,258.9 241.8,258.9 242.2,258.9 242.2,233.1 242.2,207.4 241.8,207.4 241.3,207.4 241.3,233.1 "/>
<g>
	<path class="st3" d="M396,221.7h3.3l1.1,4.8h0.4c3.5-3.7,7.2-5.5,11.2-5.5c8.1,0,13.8,7,13.8,19.3s-5.7,19.3-13.8,19.3
		c-4,0-7.7-1.8-11.2-5.5h-0.4v18.3H396V221.7z M400.4,248.9c3.7,4.7,7,7,11.2,7c6.1,0,9.7-5.5,9.7-15.6s-3.6-15.6-9.7-15.6
		c-4.1,0-7.5,2.3-11.2,7V248.9z"/>
	<path class="st3" d="M434.2,221.7h4.3v6.5h0.4c2.6-4.9,5.8-7.1,10.7-7.1h0.2v4.3h-0.6c-5.2,0-8.6,3-10.7,10v23.5h-4.3L434.2,221.7
		L434.2,221.7z"/>
	<polygon class="st3" points="456.3,221.7 458.5,221.7 460.7,221.7 460.7,240.3 460.7,258.9 458.5,258.9 456.3,258.9 456.3,240.3 	
		"/>
	<path class="st3" d="M483,256c4.6,0,7.7-2.9,7.7-6.8c0-4.5-3.5-5.5-9.6-7.8c-7.5-2.8-11.4-4.9-11.4-10.6s4.6-9.9,12-9.9
		c4.8,0,9.1,2.3,12.4,6.8l-3.1,2.3c-2.8-3.8-5.9-5.5-10-5.5c-4.1,0-6.7,2.5-6.7,6.1c0,4,3.6,4.9,9.8,7.2c7.4,2.8,11.2,5,11.2,10.9
		c0,6.2-5,10.7-12.6,10.7c-5.8,0-10.3-2.3-14-7.3l3.3-2.6C475,253.8,478.7,256,483,256"/>
	<path class="st3" d="M503.2,221.7h4v5.8h0.3c3.9-4.3,8-6.4,11.9-6.4c4.2,0,7.2,2.1,8.9,6.4h0.5c4.1-4.3,8-6.4,11.9-6.4
		c6.3,0,9.4,4,9.4,11.9v25.9h-4.2v-24.3c0-6.5-1.1-9.7-6.4-9.7c-3.4,0-7.1,2.3-10.7,6.9v27.1h-4.3v-24.3c0-6.5-1.1-9.7-6.4-9.7
		c-3.4,0-7,2.3-10.7,6.9v27.1h-4.3L503.2,221.7L503.2,221.7z"/>
	<path class="st3" d="M273.3,207.4v18.3c2.3-3.1,5.4-4.6,9.1-4.6c8.9,0,14.9,7.1,14.9,19c0,11.9-5.6,19.5-14.8,19.5
		c-4.1,0-7.4-1.6-10-4.9l-1.1,4.3h-5.3c0.4-3.7,0.4-7.2,0.4-10.4v-41.1H273.3z M281.4,253.9c5.7,0,9-4.6,9-13.4
		c0-9.2-3.3-13.9-9.2-13.9c-2.9,0-5.5,1.5-7.9,4.5v18.1C275.7,252.3,278.4,253.9,281.4,253.9"/>
	<polygon class="st3" points="311.8,207.4 311.8,233.1 311.8,258.9 308.5,258.9 305.2,258.9 305.2,233.1 305.2,207.4 308.5,207.4 	
		"/>
	<path class="st3" d="M329.1,221.6v25c0,4.9,1.6,7.2,5.5,7.2c2.9,0,6-1.6,9.2-4.9v-27.3h6.7v37.2h-6.2v-5c-4.1,3.7-7.7,5.6-11.9,5.6
		c-6.3,0-10-3.9-10-10.9v-26.9L329.1,221.6L329.1,221.6z"/>
	<path class="st3" d="M364.9,241.5v0.7c0,7.5,3.4,11.7,9.3,11.7c3.9,0,6.9-1.9,9-5.8l5,3.1c-3.1,5.5-8,8.4-14.4,8.4
		c-10.2,0-15.8-6.6-15.8-18.9s5.7-19.7,15.3-19.7c8.9,0,14.6,6.7,14.6,18.5c0,0.6-0.1,1.3-0.1,1.9L364.9,241.5L364.9,241.5z
		 M373.3,226.4c-4.9,0-8,3.5-8.2,9.9h16.1C381,229.9,378,226.4,373.3,226.4"/>
	<path class="st3" d="M545.3,207.4c2.6,0,4.8,2.1,4.8,4.8s-2.1,4.8-4.8,4.8c-2.6,0-4.8-2.1-4.8-4.8S542.7,207.4,545.3,207.4
		 M545.3,216.2c2.2,0,3.8-1.8,3.8-4.1s-1.6-4.1-3.8-4.1s-3.9,1.8-3.9,4.1S543.1,216.2,545.3,216.2 M543.5,209.4h2.1
		c1.3,0,1.9,0.5,1.9,1.6c0,0.9-0.6,1.5-1.4,1.5l1.6,2.5h-1l-1.6-2.5h-0.8v2.5h-0.9L543.5,209.4L543.5,209.4z M544.4,211.8h1.1
		c0.7,0,1.1-0.1,1.1-0.9c0-0.6-0.6-0.8-1.1-0.8h-1.1V211.8L544.4,211.8z"/>
</g>
</svg>
