<?xml version="1.0" encoding="iso-8859-1"?>
<!-- Uploaded to: SVG Repo, www.svgrepo.com, Generator: SVG Repo Mixer Tools -->
<svg height="800px" width="800px" version="1.1" id="Layer_1" xmlns="http://www.w3.org/2000/svg" xmlns:xlink="http://www.w3.org/1999/xlink" 
	 viewBox="0 0 512 512" xml:space="preserve">
<g>
	<path style="fill:#707287;" d="M141.923,118.875c-32.993,0-59.738,26.745-59.738,59.738l0,0c0,32.993,26.745,59.738,59.738,59.738
		h16.609V118.875C158.532,118.875,141.923,118.875,141.923,118.875z"/>
	<path style="fill:#707287;" d="M370.078,118.875c32.993,0,59.738,26.745,59.738,59.738l0,0c0,32.993-26.745,59.738-59.738,59.738
		h-16.609V118.875C353.469,118.875,370.078,118.875,370.078,118.875z"/>
</g>
<path style="fill:#C7CFE2;" d="M365.207,458.664l-23.425-60.577l-0.002,0.005c-6.89-4.09-14.208-7.534-21.884-10.223l0,0
	c-9.185-3.219-18.874-5.36-28.911-6.302v-63.676h-69.968v63.677c-9.62,0.901-18.92,2.898-27.761,5.896l-1.161,0.402
	c-7.672,2.689-14.988,6.132-21.874,10.22l-23.425,60.577L170.22,503.3h171.563v-0.001L365.207,458.664z"/>
<path style="fill:#AFB6C7;" d="M221.017,373.48c11.239,2.642,22.95,4.045,34.984,4.045c12.033,0,23.744-1.402,34.983-4.045v-55.589
	h-69.968V373.48z"/>
<path style="fill:#C7CFE2;" d="M256.001,8.7L256.001,8.7c-68.388,0-123.826,55.439-123.826,123.826V224.7
	c0,68.387,55.439,123.826,123.826,123.826l0,0c68.387,0,123.826-55.439,123.826-123.826v-92.175
	C379.826,64.139,324.388,8.7,256.001,8.7z"/>
<path style="fill:#5B5D6E;" d="M345.027,118.875v92.175c0,49.089-39.937,89.027-89.027,89.027s-89.027-39.937-89.027-89.027v-92.175
	L345.027,118.875L345.027,118.875z"/>
<path style="fill:#74D6FF;" d="M256,255.307c-96.924-41.212-63.466-135.945,0-86.17C319.467,119.362,352.925,214.096,256,255.307z"
	/>
<g>
	<path style="fill:#707287;" d="M170.22,398.087c-35.888,21.31-59.95,60.445-59.95,105.212l0,0h59.95V398.087z"/>
	<path style="fill:#707287;" d="M341.781,398.087c35.888,21.31,59.95,60.445,59.95,105.212l0,0h-59.95V398.087z"/>
</g>
<path d="M209.103,110.175h-42.13c-4.806,0-8.7,3.895-8.7,8.7v92.175c0,53.887,43.839,97.727,97.727,97.727
	s97.727-43.84,97.727-97.727v-92.175c0-4.805-3.894-8.7-8.7-8.7h-93.932c-4.806,0-8.7,3.895-8.7,8.7s3.894,8.7,8.7,8.7h85.233
	v83.475c0,44.293-36.034,80.327-80.327,80.327s-80.327-36.034-80.327-80.327v-83.475h33.43c4.806,0,8.7-3.895,8.7-8.7
	S213.909,110.175,209.103,110.175z"/>
<path d="M187.457,175.721c-2.979,14.62,1.015,31.029,11.247,46.203c11.428,16.945,30.063,31.257,53.892,41.39
	c1.088,0.462,2.246,0.694,3.404,0.694c1.158,0,2.316-0.231,3.404-0.694c23.831-10.132,42.467-24.445,53.895-41.39
	c10.233-15.173,14.229-31.582,11.249-46.202c-3.639-17.855-17.355-29.393-34.945-29.393c-10.545,0-22.062,4.138-33.604,12.024
	c-11.542-7.887-23.058-12.024-33.603-12.024C204.81,146.329,191.096,157.866,187.457,175.721z M204.506,179.195
	c2.003-9.829,8.525-15.467,17.891-15.467c5.752,0,15.32,2.126,28.233,12.254c3.154,2.473,7.586,2.472,10.738,0
	c12.915-10.128,22.482-12.254,28.236-12.254c9.37,0,15.893,5.637,17.896,15.468c2.836,13.918-4.486,45.321-51.499,66.611
	C208.992,224.518,201.67,193.113,204.506,179.195z"/>
<circle cx="329.568" cy="86.649" r="9.023"/>
<circle cx="294.769" cy="86.649" r="9.023"/>
<path d="M386.983,244.93c13.45-3.427,25.642-10.912,34.832-21.517c10.769-12.428,16.7-28.338,16.7-44.8s-5.931-32.372-16.7-44.8
	c-9.19-10.606-21.382-18.092-34.832-21.517C377.215,48.788,322.199,0,256,0c-29.832,0-58.004,9.682-81.472,28
	c-3.787,2.957-4.461,8.424-1.504,12.211c2.957,3.787,8.424,4.461,12.21,1.504c20.382-15.908,44.852-24.316,70.768-24.316
	c59.456,0,108.527,45.305,114.51,103.204c0.096,0.935,0.19,1.96,0.266,2.932c2.478,31.846,0.349,64.571,0.349,96.505
	c0,1.553,0,3.106,0,4.66c0,47.729-31.235,92.146-76.157,108.332c-2.192,0.79-4.409,1.51-6.647,2.16
	c-18.282,5.307-37.804,6.045-56.431,2.086c-44.726-9.491-80.938-47.273-89.171-92.142c-1.235-6.736-1.847-13.588-1.847-20.435
	v-92.175c0-3.393,0.201-6.767,0.455-10.148c1.801-20.724,9.102-40.382,21.414-57.356c2.821-3.889,1.956-9.328-1.935-12.151
	c-3.889-2.82-9.331-1.956-12.151,1.935c-12.474,17.2-20.485,36.785-23.646,57.492c-13.447,3.428-25.637,10.912-34.827,21.516
	c-10.769,12.428-16.7,28.338-16.7,44.8s5.931,32.372,16.7,44.8c9.19,10.606,21.382,18.091,34.831,21.517
	c7.511,48.83,41.775,88.948,87.3,104.889v24.067c-7.465,1.155-14.799,2.947-21.91,5.359c-8.576,2.913-16.841,6.739-24.628,11.363
	c-39.606,23.515-64.208,66.698-64.208,112.692c0,4.805,3.894,8.7,8.7,8.7c0,0,59.95,0,59.955,0h171.556h59.95
	c4.806,0,8.7-3.895,8.7-8.7c0-45.996-24.603-89.176-64.208-112.692c-0.044-0.027-0.093-0.044-0.137-0.07
	c-0.036-0.021-0.067-0.046-0.103-0.066c-7.389-4.367-15.198-8.004-23.211-10.812c-7.467-2.617-15.202-4.551-23.088-5.774v-24.068
	C345.209,333.878,379.472,293.76,386.983,244.93z M388.516,131.023c19.169,7.494,32.599,26.346,32.599,47.59
	s-13.43,40.094-32.599,47.59c0.115-10.176,0.009-20.361,0.009-30.537c0-16.173,0-32.345,0-48.519
	C388.525,145.81,388.536,131.023,388.516,131.023z M123.484,226.201c-19.169-7.496-32.599-26.346-32.599-47.588
	s13.429-40.093,32.599-47.588c-0.006,0.501-0.009,1.001-0.009,1.501v92.176C123.475,225.2,123.478,225.701,123.484,226.201z
	 M161.52,494.601h-42.212c2.436-31.26,17.888-60.318,42.212-79.906V494.601z M350.481,414.693
	c24.324,19.588,39.776,48.646,42.212,79.907h-42.212V414.693z M317.018,396.08c5.494,1.924,10.878,4.301,16.064,7.087v91.433H178.92
	v-91.44c5.18-2.783,10.557-5.157,16.023-7.073l1.108-0.385c8.265-2.804,16.938-4.644,25.778-5.473
	c4.47-0.419,7.889-4.171,7.889-8.661v-26.959c0.009,0.158,2.792,0.528,3.036,0.572c1.121,0.201,2.248,0.382,3.373,0.553
	c6.574,0.995,13.228,1.491,19.876,1.491c6.522,0,12.935-0.483,19.208-1.397c2.367-0.346,4.73-0.747,7.076-1.219v26.957
	c0,4.489,3.416,8.242,7.887,8.661C299.377,391.094,308.408,393.063,317.018,396.08z"/>
</svg>