<?xml version="1.0" encoding="utf-8"?>
<!-- Generator: Adobe Illustrator 26.0.3, SVG Export Plug-In . SVG Version: 6.00 Build 0)  -->
<svg version="1.0" id="katman_1" xmlns="http://www.w3.org/2000/svg" xmlns:xlink="http://www.w3.org/1999/xlink" x="0px" y="0px"
	 viewBox="0 0 534 402" style="enable-background:new 0 0 534 402;" xml:space="preserve">
<style type="text/css">
	.st0{fill:#FA4616;}
</style>
<g id="uipath-cs-color">
	<g id="Group">
		<path id="UiPath_Logo_full" class="st0" d="M72,129h144v144H72V129z M201,258V144H87v114H201L201,258z M99.9,166.2v43.5
			c0,19.9,10.9,31.7,29.4,31.7c19,0,29.9-11.8,29.9-31.7v-43.5h-15v43.5c0,11.2-4.9,17.6-14.7,17.6c-10.4,0-15-6.6-15-17.6v-43.5
			H99.9z M178.5,175.1c5.2,0,9.2-3.7,9.2-8.9c0-5.5-3.7-9.2-9.2-9.2c-5.2,0-9.2,3.7-9.2,9.2C169.3,171.3,173.4,175.1,178.5,175.1z
			 M171.1,182v58.5h15V182H171.1z M260.3,216.6c16.1,0,26.8-9.5,26.8-25.3c0-15.3-10.4-25.1-26.8-25.1h-28.2v74.6h15v-23.9h13.2
			V216.6z M258.6,204.7h-11.8v-26.5h11.8c8.6,0,13.2,4.9,13.2,13C271.8,199.8,267.2,204.7,258.6,204.7z M292,211.4
			c0,17.6,11.2,30,27.1,30c9.5,0,15.5-3.5,19-8.9v8.4h15V182h-15v9.2c-3.7-6-9.8-9.8-19-9.8C302.9,181.4,292,194.1,292,211.4z
			 M338.1,211.4c0,10.1-6.3,16.7-15.5,16.7c-10.1,0-15.3-7.2-15.3-16.7c0-10.4,5.8-17,15.3-17C332,194.4,338.1,201.3,338.1,211.4z
			 M390.5,227.8c-5.8,0-7.2-2.6-7.2-7.8v-25.3h13V182h-13v-16.1h-15V182h-6.9v12.7h6.9V220c0,13.8,6,20.4,20.4,20.4h7.8v-12.7H390.5
			z M419.6,190.3v-27.6h-15v78h15v-31.1c0-10.1,5.2-16.1,14.1-16.1c8.6,0,13.2,5.8,13.2,14.7v32.3h15v-33.7
			c0-15.3-10.9-25.3-24.8-25.3C428.5,181.4,423,184.6,419.6,190.3z"/>
	</g>
</g>
</svg>
